<?xml version="1.0" standalone="no"?>
<!DOCTYPE svg PUBLIC "-//W3C//DTD SVG 20010904//EN"
 "http://www.w3.org/TR/2001/REC-SVG-20010904/DTD/svg10.dtd">
<svg version="1.0" xmlns="http://www.w3.org/2000/svg"
 width="502.000000pt" height="502.000000pt" viewBox="0 0 502.000000 502.000000"
 preserveAspectRatio="xMidYMid meet">
<metadata>
Created by potrace 1.14, written by Peter Selinger 2001-2017
</metadata>
<g transform="translate(0.000000,502.000000) scale(0.100000,-0.100000)"
fill="#000000" stroke="none">
<path d="M3010 3934 c-14 -7 -19 -14 -12 -14 6 0 12 -8 11 -17 0 -11 -3 -13
-6 -5 -7 17 -52 15 -59 -3 -4 -8 -10 -15 -16 -15 -5 0 -16 -6 -23 -12 -35 -32
-45 -38 -60 -38 -8 0 -15 -4 -15 -10 0 -5 -7 -10 -15 -10 -24 0 -97 -80 -97
-106 0 -21 -29 -42 -50 -36 -4 1 -10 -7 -13 -18 -4 -11 -10 -18 -15 -15 -5 3
-11 1 -14 -4 -7 -11 13 -9 31 2 9 6 11 3 7 -7 -3 -9 -14 -16 -23 -17 -10 0
-11 -3 -4 -6 9 -3 8 -11 -4 -29 -8 -14 -18 -22 -21 -20 -8 8 -34 -23 -27 -33
3 -6 0 -13 -7 -18 -7 -4 -14 -28 -16 -53 -2 -48 -7 -95 -16 -149 -3 -19 -1
-42 5 -52 7 -13 4 -21 -8 -31 -22 -16 -26 -31 -25 -83 1 -21 -4 -45 -9 -52 -6
-6 -8 -17 -4 -23 3 -5 -1 -10 -11 -10 -15 0 -15 -2 0 -25 9 -14 12 -25 7 -25
-5 0 -9 -8 -9 -17 1 -15 -8 -72 -17 -105 -2 -5 -3 -13 -4 -19 0 -6 -8 -9 -16
-5 -8 3 -15 1 -15 -4 0 -6 -8 -10 -18 -10 -10 0 -23 -5 -30 -12 -12 -12 -93
-18 -86 -7 2 4 -10 12 -27 19 -22 10 -27 15 -17 21 9 6 4 9 -14 9 -18 0 -29 7
-33 20 -4 14 -15 20 -34 20 -15 0 -31 4 -36 9 -6 6 -23 12 -40 15 -16 2 -32 5
-35 6 -3 1 -9 1 -15 0 -36 -9 -70 -8 -81 1 -9 7 -31 9 -61 4 -27 -3 -54 -7
-60 -7 -10 -1 -10 -4 0 -17 6 -8 7 -12 2 -9 -6 3 -27 -2 -48 -12 -20 -10 -35
-14 -31 -9 3 5 -10 2 -30 -7 -19 -9 -37 -26 -40 -36 -2 -11 -9 -17 -15 -13 -6
3 -11 0 -12 -7 -4 -64 -59 -154 -82 -132 -3 3 -8 -4 -12 -16 -4 -12 -15 -30
-25 -40 -13 -13 -18 -30 -15 -54 2 -23 -1 -34 -8 -29 -6 4 -7 1 -2 -7 5 -8 8
-41 8 -74 0 -38 5 -65 13 -74 8 -7 12 -17 9 -22 -3 -4 2 -21 10 -36 8 -16 15
-32 15 -37 0 -8 26 -68 71 -163 16 -34 29 -65 29 -70 0 -42 107 -180 145 -186
11 -2 26 -9 33 -16 8 -7 17 -10 22 -7 5 3 10 2 12 -2 1 -5 28 -20 58 -36 66
-33 90 -50 90 -66 0 -6 4 -11 8 -11 17 0 54 -94 56 -140 0 -8 5 -21 11 -28 22
-28 85 -85 107 -96 132 -70 232 -128 236 -138 2 -4 7 -8 12 -8 4 0 56 -23 114
-51 58 -28 114 -52 123 -54 10 -2 20 -4 23 -5 3 -1 8 -2 13 -1 4 0 7 -3 7 -9
0 -5 6 -10 13 -10 7 0 30 -16 52 -35 22 -20 52 -38 66 -41 40 -9 85 -54 93
-94 5 -22 96 -136 148 -185 46 -44 78 -65 117 -78 29 -9 60 -17 68 -17 20 0
84 -35 113 -62 14 -13 46 -34 73 -47 26 -13 47 -28 47 -33 0 -4 6 -8 13 -8 8
0 22 -9 32 -20 10 -11 22 -17 26 -14 5 3 9 0 9 -7 0 -7 3 -9 6 -6 4 4 19 -2
33 -12 14 -10 43 -24 64 -30 20 -7 37 -17 37 -22 0 -5 11 -11 25 -15 14 -3 25
-10 25 -15 0 -34 102 -89 175 -94 47 -4 125 -13 175 -21 19 -4 50 -8 68 -10
18 -1 37 -6 42 -9 6 -3 10 -2 10 4 0 6 6 8 14 5 32 -12 86 35 86 75 0 15 4 31
10 37 17 17 13 74 -9 127 -6 16 -11 34 -11 42 0 7 -4 15 -10 17 -8 3 -23 110
-23 163 1 11 2 61 3 110 3 122 2 125 -17 132 -10 4 -25 16 -33 26 -9 11 -31
21 -49 23 -39 5 -52 12 -50 27 3 20 -12 47 -26 47 -8 0 -17 9 -20 20 -3 11
-12 20 -20 20 -8 0 -17 9 -20 20 -3 11 -12 20 -20 20 -8 0 -17 9 -20 20 -4 11
-11 18 -16 15 -5 -4 -12 2 -16 12 -3 10 -12 25 -18 33 -7 8 -15 27 -19 42 -3
16 -12 27 -19 25 -6 -1 -12 7 -12 18 0 11 -11 25 -25 32 -14 7 -18 12 -10 13
11 0 11 3 2 12 -7 7 -12 18 -12 26 0 17 -25 43 -34 35 -3 -4 -6 1 -6 9 0 9 -7
18 -15 22 -8 3 -15 11 -15 19 0 7 -18 26 -40 43 -22 16 -42 37 -46 47 -3 9
-10 17 -15 17 -5 0 -9 7 -9 15 0 8 -4 15 -9 15 -5 0 -16 16 -25 35 -9 19 -23
35 -31 35 -17 0 -26 56 -20 135 3 49 -1 68 -20 102 -21 39 -23 51 -18 150 2
59 4 113 5 118 1 42 -15 189 -26 230 -7 28 -11 52 -7 55 3 3 6 19 5 35 0 17 1
36 4 43 5 15 32 16 32 1 0 -5 5 -7 10 -4 10 6 14 -6 11 -38 -1 -9 6 -20 16
-24 10 -3 22 -12 26 -20 9 -14 45 -17 64 -5 6 4 13 19 15 32 2 14 7 30 10 36
21 32 28 142 12 159 -7 7 -11 15 -8 17 2 3 -1 18 -7 34 -6 16 -12 78 -13 137
-1 69 -6 111 -13 115 -7 4 -15 21 -18 37 -3 17 -7 36 -9 43 -1 8 -9 17 -16 22
-8 5 -15 21 -15 37 -1 18 -9 31 -23 38 -12 5 -23 18 -23 27 -3 35 -4 39 -16
46 -6 4 -15 20 -18 35 -5 20 -13 27 -24 24 -15 -3 -17 3 -16 42 0 25 -4 52
-10 60 -7 11 -7 13 2 8 7 -5 9 0 6 13 -3 11 -8 18 -12 16 -4 -3 -7 4 -7 14 0
10 4 16 8 14 4 -3 8 -2 9 3 0 4 2 19 5 32 4 21 3 22 -13 10 -9 -8 -14 -9 -10
-2 4 6 3 14 -3 18 -6 4 -7 11 -4 17 5 7 0 9 -14 6 -12 -4 -20 -2 -16 3 3 5 0
9 -5 9 -6 0 -11 6 -11 14 0 8 -7 17 -16 20 -10 4 -13 13 -9 26 5 16 2 20 -15
20 -12 0 -18 4 -15 10 4 6 -9 17 -27 25 -18 8 -27 14 -20 15 10 0 10 4 -2 15
-8 9 -13 22 -10 29 3 8 0 17 -7 22 -8 5 -10 3 -4 -6 5 -9 4 -11 -3 -6 -7 4
-12 16 -12 27 0 22 -3 22 -46 10 -26 -7 -34 -5 -48 10 -13 16 -14 19 -1 19 8
0 15 4 15 8 0 4 -35 7 -77 7 -43 -1 -84 3 -90 8 -9 6 -18 5 -27 -2 -11 -9 -20
-9 -35 -2 -23 13 -19 13 -51 -5z m-800 -1054 c0 -5 -5 -10 -11 -10 -5 0 -7 5
-4 10 3 6 8 10 11 10 2 0 4 -4 4 -10z"/>
</g>
</svg>
